<?xml version="1.0" encoding="UTF-8"?>
<svg xmlns="http://www.w3.org/2000/svg" width="1100" height="698" viewBox="0 0 1100 698"
     style="font-family:'PingFang SC','Microsoft YaHei','SimHei',Arial,sans-serif">
<defs>
  <marker id="arr"  markerWidth="10" markerHeight="7" refX="9" refY="3.5" orient="auto"><polygon points="0 0,10 3.5,0 7" fill="#2c5f8a"/></marker>
  <marker id="arro" markerWidth="10" markerHeight="7" refX="9" refY="3.5" orient="auto"><polygon points="0 0,10 3.5,0 7" fill="#c0711a"/></marker>
  <marker id="arrb" markerWidth="10" markerHeight="7" refX="9" refY="3.5" orient="auto"><polygon points="0 0,10 3.5,0 7" fill="#1565c0"/></marker>
</defs>

<rect width="1100" height="698" fill="#f0f5fa"/>
<text x="550" y="26" text-anchor="middle" font-size="18" font-weight="700" fill="#1a3a5c">智能生育匹配系统 ─ Agent 技术架构图</text>

<!-- ══════════ ① 用户接入层 y=35 h=118 ══════════ -->
<rect x="25" y="35" width="1050" height="118" rx="6" fill="#eef6fc" stroke="#5b9bd5" stroke-width="1.5"/>
<text x="550" y="53" text-anchor="middle" font-size="13" font-weight="700" fill="#1f4e79">① 用户接入层（Web 前端 · index_v3.html）</text>

<rect x="40"  y="60" width="322" height="84" rx="5" fill="white" stroke="#aacde0" stroke-width="1.2"/>
<text x="201" y="76" text-anchor="middle" font-size="11" font-weight="700" fill="#1f4e79">💬 对话聊天面板</text>
<line x1="40" y1="80" x2="362" y2="80" stroke="#cce4f0" stroke-width="1"/>
<text x="54" y="95"  font-size="9.5" fill="#333">• 多轮对话输入 · 消息历史记录</text>
<text x="54" y="108" font-size="9.5" fill="#333">• 流式 token 打字效果（SSE）</text>
<text x="54" y="121" font-size="9.5" fill="#333">• LLM 自然语言回复 Markdown 渲染</text>

<rect x="372" y="60" width="322" height="84" rx="5" fill="white" stroke="#aacde0" stroke-width="1.2"/>
<text x="533" y="76" text-anchor="middle" font-size="11" font-weight="700" fill="#1f4e79">📋 候选人展示面板</text>
<line x1="372" y1="80" x2="694" y2="80" stroke="#cce4f0" stroke-width="1"/>
<text x="386" y="95"  font-size="9.5" fill="#333">• 编号 / 学历 / 身高 / 体型 / 肤色 / 眼皮</text>
<text x="386" y="108" font-size="9.5" fill="#333">• 条件命中率 % · ✓/✗ 逐项标注</text>
<text x="386" y="121" font-size="9.5" fill="#333">• 推荐理由文字 · like / dislike 反馈</text>

<rect x="704" y="60" width="362" height="84" rx="5" fill="white" stroke="#aacde0" stroke-width="1.2"/>
<text x="885" y="76" text-anchor="middle" font-size="11" font-weight="700" fill="#1f4e79">🔍 筛选面板  &amp;  🐛 NLU 调试面板</text>
<line x1="704" y1="80" x2="1066" y2="80" stroke="#cce4f0" stroke-width="1"/>
<text x="718" y="95"  font-size="9.5" fill="#333">• 17 字段多选筛选 → POST /api/search</text>
<text x="718" y="108" font-size="9.5" fill="#333">• NLU 调试: intent · features · constraints</text>
<text x="718" y="121" font-size="9.5" fill="#333">• remove_fields · pending_relaxations · 累积需求</text>

<!-- arrow 1→2 -->
<line x1="550" y1="153" x2="550" y2="164" stroke="#2c5f8a" stroke-width="2" marker-end="url(#arr)"/>
<text x="558" y="162" font-size="9" fill="#2c5f8a">HTTP / SSE 请求</text>

<!-- ══════════ ② 应用服务层 y=165 h=130 ══════════ -->
<rect x="25" y="165" width="1050" height="130" rx="6" fill="#eef6fc" stroke="#5b9bd5" stroke-width="1.5"/>
<text x="550" y="182" text-anchor="middle" font-size="13" font-weight="700" fill="#1f4e79">② 应用服务层</text>

<!-- gateway strip -->
<rect x="40" y="187" width="1030" height="30" rx="4" fill="#d0e8f8" stroke="#7fb3d3" stroke-width="1"/>
<text x="550" y="199" text-anchor="middle" font-size="10.5" font-weight="700" fill="#1a3a5c">应用网关  ·  main.py（FastAPI + uvicorn · HOST:0.0.0.0 · PORT:8000）</text>
<text x="550" y="211" text-anchor="middle" font-size="9" fill="#2c5f8a">启动时加载 1000 条 Excel · 构建 1000×43 特征矩阵（内存常驻）· 注册 4 路由 · CORS 中间件 · 依赖注入</text>

<!-- 4 route boxes  x=40,297,554,811  w=247/258  y=224 h=62 -->
<rect x="40"  y="224" width="247" height="62" rx="5" fill="white" stroke="#aacde0" stroke-width="1.2"/>
<text x="163" y="239" text-anchor="middle" font-size="10.5" font-weight="700" fill="#1f4e79">流式对话  chat_stream.py</text>
<line x1="40" y1="243" x2="287" y2="243" stroke="#cce4f0" stroke-width="1"/>
<text x="52" y="256" font-size="9" fill="#333">• POST /api/chat/stream（SSE 长连接）</text>
<text x="52" y="268" font-size="9" fill="#333">• emit: token · reply · candidates · debug</text>
<text x="52" y="280" font-size="9" fill="#333">• pending_relaxations 全局肯定兜底</text>

<rect x="297" y="224" width="247" height="62" rx="5" fill="white" stroke="#aacde0" stroke-width="1.2"/>
<text x="420" y="239" text-anchor="middle" font-size="10.5" font-weight="700" fill="#1f4e79">同步对话  chat.py</text>
<line x1="297" y1="243" x2="544" y2="243" stroke="#cce4f0" stroke-width="1"/>
<text x="309" y="256" font-size="9" fill="#333">• POST /api/chat（JSON 响应）</text>
<text x="309" y="268" font-size="9" fill="#333">• 同调用 NLU / 状态机 / 匹配链路</text>
<text x="309" y="280" font-size="9" fill="#333">• _mock_parse 规则兜底（无 LLM 时）</text>

<rect x="554" y="224" width="247" height="62" rx="5" fill="white" stroke="#aacde0" stroke-width="1.2"/>
<text x="677" y="239" text-anchor="middle" font-size="10.5" font-weight="700" fill="#1f4e79">结构化搜索  search.py</text>
<line x1="554" y1="243" x2="801" y2="243" stroke="#cce4f0" stroke-width="1"/>
<text x="566" y="256" font-size="9" fill="#333">• POST /api/search（不经 LLM）</text>
<text x="566" y="268" font-size="9" fill="#333">• 17 字段 AND 过滤 · 优先级排序</text>
<text x="566" y="280" font-size="9" fill="#333">• 渐进放宽 must → prefer 降级</text>

<rect x="811" y="224" width="258" height="62" rx="5" fill="white" stroke="#aacde0" stroke-width="1.2"/>
<text x="940" y="239" text-anchor="middle" font-size="10.5" font-weight="700" fill="#1f4e79">反馈接口  feedback.py</text>
<line x1="811" y1="243" x2="1069" y2="243" stroke="#cce4f0" stroke-width="1"/>
<text x="823" y="256" font-size="9" fill="#333">• POST /api/feedback（like / dislike）</text>
<text x="823" y="268" font-size="9" fill="#333">• 记录至 session.feedback_log</text>
<text x="823" y="280" font-size="9" fill="#333">• GET /api/session/{id} 查询状态</text>

<!-- arrow 2→3 -->
<line x1="550" y1="295" x2="550" y2="307" stroke="#2c5f8a" stroke-width="2" marker-end="url(#arr)"/>
<text x="558" y="304" font-size="9" fill="#2c5f8a">NLU 解析 · 状态机流转</text>

<!-- ══════════ ③ 智能对话层 y=308 h=118 ══════════ -->
<rect x="25" y="308" width="1050" height="118" rx="6" fill="#fffbee" stroke="#d4a017" stroke-width="1.5"/>
<text x="550" y="325" text-anchor="middle" font-size="13" font-weight="700" fill="#7d5a00">③ 智能对话层</text>

<!-- 4 dialogue boxes  y=331 h=86 -->
<rect x="40"  y="331" width="247" height="86" rx="5" fill="white" stroke="#e8c97a" stroke-width="1.2"/>
<text x="163" y="347" text-anchor="middle" font-size="10.5" font-weight="700" fill="#7d5a00">语义理解  nlu.py</text>
<line x1="40" y1="351" x2="287" y2="351" stroke="#f5e49a" stroke-width="1"/>
<text x="52" y="365" font-size="9" fill="#333">• SYSTEM_PROMPT：17 字段解析规则</text>
<text x="52" y="377" font-size="9" fill="#333">• LLM 流式调用 → 提取 JSON 特征块</text>
<text x="52" y="389" font-size="9" fill="#333">• intent · features · constraints · remove_fields</text>
<text x="52" y="401" font-size="9" fill="#333">• _detect_relaxation_fallback · _is_global_affirmative</text>

<rect x="297" y="331" width="247" height="86" rx="5" fill="white" stroke="#e8c97a" stroke-width="1.2"/>
<text x="420" y="347" text-anchor="middle" font-size="10.5" font-weight="700" fill="#7d5a00">对话状态机  dialogue_flow.py</text>
<line x1="297" y1="351" x2="544" y2="351" stroke="#f5e49a" stroke-width="1"/>
<text x="309" y="365" font-size="9" fill="#333">• 6 态: START → COLLECTING</text>
<text x="309" y="377" font-size="9" fill="#333">       → MATCHING → PRESENTING → END</text>
<text x="309" y="389" font-size="9" fill="#333">• determine_next_action</text>
<text x="309" y="401" font-size="9" fill="#333">• build_feature_summary</text>

<rect x="554" y="331" width="247" height="86" rx="5" fill="white" stroke="#e8c97a" stroke-width="1.2"/>
<text x="677" y="347" text-anchor="middle" font-size="10.5" font-weight="700" fill="#7d5a00">会话管理  session.py</text>
<line x1="554" y1="351" x2="801" y2="351" stroke="#f5e49a" stroke-width="1"/>
<text x="566" y="365" font-size="9" fill="#333">• parsed_features 多轮需求累积</text>
<text x="566" y="377" font-size="9" fill="#333">• constraints: must / prefer 约束</text>
<text x="566" y="389" font-size="9" fill="#333">• pending_relaxations 瓶颈字段缓存</text>
<text x="566" y="401" font-size="9" fill="#333">• SessionManager · 30 min 超时</text>

<rect x="811" y="331" width="258" height="86" rx="5" fill="white" stroke="#e8c97a" stroke-width="1.2"/>
<text x="940" y="347" text-anchor="middle" font-size="10.5" font-weight="700" fill="#7d5a00">回复生成  response_gen.py</text>
<line x1="811" y1="351" x2="1069" y2="351" stroke="#f5e49a" stroke-width="1"/>
<text x="823" y="365" font-size="9" fill="#333">• 整合 LLM 回复 + 匹配候选人</text>
<text x="823" y="377" font-size="9" fill="#333">• full / relaxed / similarity 三级分支</text>
<text x="823" y="389" font-size="9" fill="#333">• bottleneck 字段放宽引导语</text>
<text x="823" y="401" font-size="9" fill="#333">• → { reply, candidates, state }</text>

<!-- arrow 3→4 -->
<line x1="550" y1="426" x2="550" y2="437" stroke="#2c5f8a" stroke-width="2" marker-end="url(#arr)"/>
<text x="558" y="435" font-size="9" fill="#2c5f8a">特征向量化 · 相似度计算</text>

<!-- ══════════ ④ 核心计算层 y=438 h=118 ══════════ -->
<rect x="25" y="438" width="1050" height="118" rx="6" fill="#eafaf1" stroke="#27ae60" stroke-width="1.5"/>
<text x="550" y="455" text-anchor="middle" font-size="13" font-weight="700" fill="#1a5e37">④ 核心计算层</text>

<!-- 4 core boxes  y=461 h=86 -->
<rect x="40"  y="461" width="247" height="86" rx="5" fill="white" stroke="#82c99d" stroke-width="1.2"/>
<text x="163" y="477" text-anchor="middle" font-size="10.5" font-weight="700" fill="#1a5e37">数据加载  data_loader.py</text>
<line x1="40" y1="481" x2="287" y2="481" stroke="#b2dfca" stroke-width="1"/>
<text x="52" y="495" font-size="9" fill="#333">• pd.read_excel → DataFrame 1000 行</text>
<text x="52" y="507" font-size="9" fill="#333">• 22 列校验 · 30+ 字段脱敏展示</text>
<text x="52" y="519" font-size="9" fill="#333">• _float_safe 防 NaN/Inf 序列化</text>
<text x="52" y="531" font-size="9" fill="#333">• 应用启动时加载，常驻内存</text>

<rect x="297" y="461" width="247" height="86" rx="5" fill="white" stroke="#82c99d" stroke-width="1.2"/>
<text x="420" y="477" text-anchor="middle" font-size="10.5" font-weight="700" fill="#1a5e37">特征工程  feature_engine.py</text>
<line x1="297" y1="481" x2="544" y2="481" stroke="#b2dfca" stroke-width="1"/>
<text x="309" y="495" font-size="9" fill="#333">• encode_all → 1000×43 特征矩阵</text>
<text x="309" y="507" font-size="9" fill="#333">• dim[0-3]: 学历/身高/BMI（MinMax归一化）</text>
<text x="309" y="519" font-size="9" fill="#333">• dim[4-42]: 体型/肤色/血型…（one-hot）</text>
<text x="309" y="531" font-size="9" fill="#333">• encode_query → ( 43维向量, mask数组 )</text>

<rect x="554" y="461" width="247" height="86" rx="5" fill="white" stroke="#82c99d" stroke-width="1.2"/>
<text x="677" y="477" text-anchor="middle" font-size="10.5" font-weight="700" fill="#1a5e37">匹配引擎  matcher.py</text>
<line x1="554" y1="481" x2="801" y2="481" stroke="#b2dfca" stroke-width="1"/>
<text x="566" y="495" font-size="9" fill="#333">• 余弦×0.6 + 欧氏×0.4 融合得分</text>
<text x="566" y="507" font-size="9" fill="#333">• hard_filter：must 约束 AND 过滤</text>
<text x="566" y="519" font-size="9" fill="#333">• match_with_relaxation（top_k=50）</text>
<text x="566" y="531" font-size="9" fill="#333">• diagnose_no_match → 瓶颈字段列表</text>

<rect x="811" y="461" width="258" height="86" rx="5" fill="white" stroke="#82c99d" stroke-width="1.2"/>
<text x="940" y="477" text-anchor="middle" font-size="10.5" font-weight="700" fill="#1a5e37">排序与理由  ranker.py</text>
<line x1="811" y1="481" x2="1069" y2="481" stroke="#b2dfca" stroke-width="1"/>
<text x="823" y="495" font-size="9" fill="#333">• 文字字段软加分 +0.06/项</text>
<text x="823" y="507" font-size="9" fill="#333">  （籍贯 / 性格 / 职业 / 民族）</text>
<text x="823" y="519" font-size="9" fill="#333">• compute_field_match 逐字段比对</text>
<text x="823" y="531" font-size="9" fill="#333">• 命中率 % · 自然语言推荐理由</text>

<!-- arrow 4→5 -->
<line x1="550" y1="556" x2="550" y2="567" stroke="#2c5f8a" stroke-width="2" marker-end="url(#arr)"/>
<text x="558" y="565" font-size="9" fill="#2c5f8a">加载数据 · 读取配置</text>

<!-- ══════════ ⑤ 外部依赖 y=568 h=112 ══════════ -->
<rect x="25" y="568" width="1050" height="112" rx="6" fill="#f3f3f3" stroke="#8e9aaa" stroke-width="1.5"/>
<text x="550" y="585" text-anchor="middle" font-size="13" font-weight="700" fill="#333">⑤ 外部依赖</text>

<!-- 3 boxes  x=40,382,724  w=332/336  y=591 h=80 -->
<rect x="40"  y="591" width="332" height="80" rx="5" fill="white" stroke="#b8c4cf" stroke-width="1.2"/>
<text x="206" y="607" text-anchor="middle" font-size="10.5" font-weight="700" fill="#333">大语言模型  DeepSeek API</text>
<line x1="40" y1="611" x2="372" y2="611" stroke="#ddd" stroke-width="1"/>
<text x="52" y="625" font-size="9" fill="#333">• model = deepseek-v4-flash（流式输出）</text>
<text x="52" y="637" font-size="9" fill="#333">• 意图识别 · 特征提取 · 澄清追问</text>
<text x="52" y="649" font-size="9" fill="#333">• OpenAI 兼容格式 · 历史窗口 20 轮</text>
<text x="52" y="661" font-size="9" fill="#666">（由 nlu.py 流式调用，禁止编造候选人）</text>

<rect x="382" y="591" width="332" height="80" rx="5" fill="white" stroke="#b8c4cf" stroke-width="1.2"/>
<text x="548" y="607" text-anchor="middle" font-size="10.5" font-weight="700" fill="#333">捐精人数据库  Excel 文件</text>
<line x1="382" y1="611" x2="714" y2="611" stroke="#ddd" stroke-width="1"/>
<text x="394" y="625" font-size="9" fill="#333">• 1000 条可用记录（is_available = True）</text>
<text x="394" y="637" font-size="9" fill="#333">• 字段: 学历/身高/体型/肤色/血型/脸型</text>
<text x="394" y="649" font-size="9" fill="#333">  眼皮/星座/籍贯/职业/性格/标本数量…</text>
<text x="394" y="661" font-size="9" fill="#666">（由 data_loader.py 启动时加载，常驻内存）</text>

<rect x="724" y="591" width="351" height="80" rx="5" fill="white" stroke="#b8c4cf" stroke-width="1.2"/>
<text x="899" y="607" text-anchor="middle" font-size="10.5" font-weight="700" fill="#333">系统配置  config.py  +  .env</text>
<line x1="724" y1="611" x2="1075" y2="611" stroke="#ddd" stroke-width="1"/>
<text x="736" y="625" font-size="9" fill="#333">• MATCH_TOP_K = 50  ·  threshold = 0.7</text>
<text x="736" y="637" font-size="9" fill="#333">• COSINE_WEIGHT = 0.6  ·  EUCLIDEAN = 0.4</text>
<text x="736" y="649" font-size="9" fill="#333">• SESSION_TIMEOUT = 30 min</text>
<text x="736" y="661" font-size="9" fill="#333">• LLM_API_KEY · LLM_MODEL · HOST · PORT</text>

<!-- ══════════ 侧向连接箭头 ══════════ -->

<!-- SSE 回传（右侧虚线向上） -->
<polyline points="1080,556 1090,556 1090,153 1080,153" fill="none" stroke="#1565c0" stroke-width="1.8" stroke-dasharray="7,4" marker-end="url(#arrb)"/>
<text x="1093" y="360" font-size="8.5" fill="#1565c0" font-weight="600" transform="rotate(-90,1093,360)">SSE 流式回传（token · reply · candidates）</text>

<!-- nlu.py → DeepSeek（左侧虚线） -->
<polyline points="40,374 18,374 18,631 40,631" fill="none" stroke="#c0711a" stroke-width="1.5" stroke-dasharray="5,3" marker-end="url(#arro)"/>
<text x="12" y="510" font-size="8.5" fill="#c0711a" font-weight="600" transform="rotate(-90,12,510)">LLM 调用（nlu.py → DeepSeek）</text>

</svg>
